<svg xmlns="http://www.w3.org/2000/svg" viewBox="0 0 155.95 117.02"><defs><style>.cls-1{fill:#ee5344;}.cls-2{fill:#4e7dbf;}.cls-3{fill:#33b062;}.cls-4{fill:#f8ba2b;}.cls-5{fill:#c52e2e;}</style></defs><g id="Layer_2" data-name="Layer 2"><g id="Layer_1-2" data-name="Layer 1"><path class="cls-1" d="M35.5,11.16a10.5,10.5,0,0,1,1.61.8q19.61,14.67,39.17,29.4a2.33,2.33,0,0,0,3.37,0q19.41-14.66,38.9-29.19l1.49-1.1a9.62,9.62,0,0,1,.46,2.07q0,21.69,0,43.38l-.15.65c-1.94,1.34-3.93,2.62-5.82,4Q96.91,74.38,79.33,87.62a1.91,1.91,0,0,1-2.76,0Q57.64,73.33,38.66,59.12c-1-.76-2.11-1.45-3.18-2.17l-.06-.49q0-21,0-41.91C35.42,13.42,35.47,12.29,35.5,11.16Z"/><path class="cls-2" d="M35.42,56.46l.06.49V117H11.53C4.46,117,0,112.6,0,105.57Q0,60.92,0,16.24c0-.78.11-1.57.18-2.36C.15,18.92.08,24,.13,29a2.89,2.89,0,0,0,1,1.88C2.49,32,4,32.94,5.35,34c3.06,2.32,6.09,4.68,9.16,7q6.92,5.19,13.85,10.32C30.7,53,33.07,54.73,35.42,56.46Z"/><path class="cls-3" d="M120.35,57.16l.15-.65c.48-.31,1-.59,1.45-.94q14.37-10.8,28.72-21.6c1.66-1.24,3.47-2.28,5.21-3.41,0,2,.06,4,.06,5.95q0,34.4,0,68.79c0,4.52-1.53,8.13-5.57,10.32a10.76,10.76,0,0,1-4.68,1.32c-8,.13-16.12.06-24.17.06-.28,0-.55-.06-1.08-.11v-2.53q0-27.76,0-55.51C120.46,58.29,120.39,57.72,120.35,57.16Z"/><path class="cls-4" d="M155.88,30.56c-1.74,1.13-3.55,2.17-5.21,3.41Q136.29,44.74,122,55.57c-.46.35-1,.63-1.45.94q0-21.69,0-43.38a9.62,9.62,0,0,0-.46-2.07c4.62-3.48,8.78-7.67,14.23-9.93a15.82,15.82,0,0,1,20.6,9.18,16.72,16.72,0,0,1,1,5.12C156,20.47,155.9,25.51,155.88,30.56Z"/><path class="cls-5" d="M35.42,56.46c-2.35-1.73-4.72-3.43-7.06-5.17Q21.43,46.15,14.51,41c-3.07-2.31-6.1-4.67-9.16-7-1.38-1-2.86-2-4.18-3.1A2.89,2.89,0,0,1,.13,29c0-5,0-10.08.06-15.12C2.32,1.41,15.73-4,25.88,3.53c2.82,2.09,5.63,4.18,8.42,6.3a10.15,10.15,0,0,1,1.2,1.33c0,1.13-.08,2.26-.08,3.39Q35.4,35.5,35.42,56.46Z"/></g></g></svg>