<svg xmlns="http://www.w3.org/2000/svg" viewBox="0 0 130.78 128.96"><defs><style>.cls-1{fill:#31a64a;}.cls-2{fill:#f8faf7;}</style></defs><g id="Layer_2" data-name="Layer 2"><g id="Layer_1-2" data-name="Layer 1"><path class="cls-1" d="M111.81,106.1c.5,2.87-1.49,3.84-2.83,5-3,2.52-6.18,4.85-9.42,7.08-1.3.9-3,1.19-4.41,2a6.39,6.39,0,0,0-2.32,2.59l1.32-.22c-.4.36-.51.55-.66.59-5.63,1.5-11.28,3-16.89,4.51a40.35,40.35,0,0,1-17.85.7c-4.09-.71-8-2.33-12.08-3.28-4.8-1.12-9.06-3.44-13.2-5.88-3.5-2.07-6.57-4.87-9.89-7.28-4.22-3-6.54-7.71-9.84-11.54-3-3.5-4.57-7.77-6.17-12C6.69,86,5.45,83.76,4.46,81.47a11.45,11.45,0,0,1-.61-2.6C3.23,75.29,2.69,71.7,2,68.13A6.48,6.48,0,0,0,.9,66.2c.16-.21.85-.72,1-1.32.3-1.74.32-3.52.51-5.28C3,53.38,3.72,47.14,6.15,41.29c1-2.4,2.36-4.66,3.36-7.07a40,40,0,0,0,1.4-4.92c1.12.58,1.9-.29,2.75-1.49A75.41,75.41,0,0,1,28.93,12.13,53.92,53.92,0,0,1,44,4.26,89.63,89.63,0,0,1,55.37,1.5c2.12-.45,4.29-.67,6.43-1A27.11,27.11,0,0,1,72.64.6c3.32.82,6.78,1,10.11,1.85a51.41,51.41,0,0,1,15,6,29.83,29.83,0,0,0,2.81,1.45c4.53,2.12,7.66,6.06,11.6,9,1.73,1.27,2.92,3.28,4.4,4.9a10.68,10.68,0,0,0,1.91,1.64c.81.56,2.17.73,1.24,2.28-.06.1.71.66,1,1.06a18.51,18.51,0,0,1,2,2.6c1.11,2,2.17,4.06,3.11,6.16,2.95,6.61,5.48,13.48,4.49,20.75-.51,3.8,1,7.36.07,11-1.08,4.19-2,8.42-3,12.61a3.41,3.41,0,0,1-1.31,1.68c.62-6.82,2.32-13.54.91-21L126,65l-1.17-.79-1.35,2.3-.78-3.69c-.6.54-1.1.94-1.54,1.39s-.9,1-1.39,1.62c.54,2,2.08,4.14.17,5.93-.39-4.25-.74-8.55-1.2-12.84a41.26,41.26,0,0,0-1-6.07c-5.12-19.62-17.31-32.4-37-37.55A46.23,46.23,0,0,0,51.35,17.2C46.07,19.31,40.91,21.9,36.86,26c-3.5,3.57-7.11,7.13-9.93,11.21a45.28,45.28,0,0,0-7.16,19.28,47.76,47.76,0,0,0,1.74,22.19c3.27,9.92,8.89,18.38,17.4,24.55a60.3,60.3,0,0,0,12.4,6.81c2.62,1.07,5.8.77,8.9,1.09-.39,1.48.76,1.79,2.3,2a50.53,50.53,0,0,0,20.58-1.6c3.16-.89,6.19-2.18,9.29-3.27a1.85,1.85,0,0,1,1.59.1l-4.68,2.69.39.68c4.11-1.82,8.25-3.67,11.83-6.49s7-5.94,10.39-8.85c-1,4-5.78,5.68-7.81,11.09-3.6,3.76-9.2,7.35-15.73,10.06.5.41,1,1.07,1.26,1a46.52,46.52,0,0,0,5.4-2.41c2.75-1.49,5.42-3.15,8.13-4.73,1.87-1.1,3.77-2.18,5.63-3.3C109.73,107.53,110.63,106.88,111.81,106.1Z"/><path class="cls-1" d="M40.5,90.91c1.65-5,3.21-9.49,4.61-14.06a4.27,4.27,0,0,0-.21-2.93,29.75,29.75,0,0,1-2.07-22.23c4.75-17.4,25.65-25.1,40.92-17.53,20.15,10,21.79,37.23,4.33,49.61-9.15,6.48-19.1,7.35-29.4,2.92a5.7,5.7,0,0,0-4.43-.22C49.84,88,45.39,89.34,40.5,90.91ZM81.88,80.4c1.24-.21,2.68,0,3.54-.66A22.75,22.75,0,0,0,95.2,63.07c.93-9.58-2.62-17.4-10.58-22.87C76.84,34.86,68.44,34.6,60,38.5c-12.88,5.94-17.56,22-10.09,34.44a3.82,3.82,0,0,1,.37,3.73C49.46,78.8,48.83,81,48,83.45a22.22,22.22,0,0,0,3.56-1,10.34,10.34,0,0,1,10,.22,20.53,20.53,0,0,0,16.27,1C79.48,83.09,82.22,83.22,81.88,80.4Zm.3.72.15.15a1.92,1.92,0,0,0,.14-.29s-.09-.09-.14-.14Z"/><path class="cls-1" d="M125.87,66.83l-.41,1.92.26,0V66.7Z"/><path class="cls-1" d="M.11,62.68v.59h0v-.59Z"/><polygon class="cls-1" points="0.09 59.68 0 59.59 0.12 59.55 0.09 59.68"/><path class="cls-2" d="M82.18,81.12l.15-.28s.14.11.14.14a1.92,1.92,0,0,1-.14.29Z"/><path class="cls-1" d="M56.43,53.86A8.05,8.05,0,0,1,59,48a3.16,3.16,0,0,1,5.38,1.12,13.68,13.68,0,0,0,.75,1.76C66.39,53,66.72,55,64.56,57a2.44,2.44,0,0,0,0,2.24A17.16,17.16,0,0,0,73.61,67c.62.23,2-.52,2.53-1.18,2.08-2.41,2-2.47,4.94-1.22a24.15,24.15,0,0,1,2.29,1.11c1,.57,2.6.63,2.34,2.48S85,71.81,83,72.78a10.58,10.58,0,0,1-7.76.5c-8.89-2.43-14.38-8.56-18.16-16.55A12.21,12.21,0,0,1,56.43,53.86Z"/></g></g></svg>